<svg width="24" height="13" viewBox="0 0 24 13" fill="none" xmlns="http://www.w3.org/2000/svg">
<path d="M0.75 0.25V13H23.25V0.25H0.75ZM12.75 10H5.25C5.05109 10 4.86032 9.92098 4.71967 9.78033C4.57902 9.63968 4.5 9.44891 4.5 9.25C4.5 9.05109 4.57902 8.86032 4.71967 8.71967C4.86032 8.57902 5.05109 8.5 5.25 8.5H12.75C12.9489 8.5 13.1397 8.57902 13.2803 8.71967C13.421 8.86032 13.5 9.05109 13.5 9.25C13.5 9.44891 13.421 9.63968 13.2803 9.78033C13.1397 9.92098 12.9489 10 12.75 10ZM18.75 7H5.25C5.05109 7 4.86032 6.92098 4.71967 6.78033C4.57902 6.63968 4.5 6.44891 4.5 6.25C4.5 6.05109 4.57902 5.86032 4.71967 5.71967C4.86032 5.57902 5.05109 5.5 5.25 5.5H18.75C18.9489 5.5 19.1397 5.57902 19.2803 5.71967C19.421 5.86032 19.5 6.05109 19.5 6.25C19.5 6.44891 19.421 6.63968 19.2803 6.78033C19.1397 6.92098 18.9489 7 18.75 7ZM18.75 4H5.25C5.05109 4 4.86032 3.92098 4.71967 3.78033C4.57902 3.63968 4.5 3.44891 4.5 3.25C4.5 3.05109 4.57902 2.86032 4.71967 2.71967C4.86032 2.57902 5.05109 2.5 5.25 2.5H18.75C18.9489 2.5 19.1397 2.57902 19.2803 2.71967C19.421 2.86032 19.5 3.05109 19.5 3.25C19.5 3.44891 19.421 3.63968 19.2803 3.78033C19.1397 3.92098 18.9489 4 18.75 4Z" fill="#FFB900"/>
</svg>
